# xmcd CD database file
#
# Track frame offsets:
#	225
#	16877
#	28687
#	44375
#
# Disc length: 794 seconds
#
# Revision: 0
# Processed by: cddbd v1.4PL0 Copyright (c) Steve Scherf et al.
# Submitted via: CDex 1.50beta8
#
DISCID=28031704
DTITLE=R.A.M. - Chvíle
DYEAR=1996
DGENRE=Country
TTITLE0=Kdyz pada dest
TTITLE1=Podej mi spravný lék
TTITLE2=Stesk
TTITLE3=Chvíle
EXTD=YEAR: 1996
EXTT0=
EXTT1=
EXTT2=
EXTT3=
PLAYORDER=
